<?xml version="1.0" standalone="no"?>
<!DOCTYPE svg PUBLIC "-//W3C//DTD SVG 20010904//EN"
 "http://www.w3.org/TR/2001/REC-SVG-20010904/DTD/svg10.dtd">
<svg version="1.0" xmlns="http://www.w3.org/2000/svg"
 width="484.000000pt" height="484.000000pt" viewBox="0 0 484.000000 484.000000"
 preserveAspectRatio="xMidYMid meet">
<metadata>
Created by potrace 1.11, written by Peter Selinger 2001-2013
</metadata>
<g transform="translate(0.000000,484.000000) scale(0.100000,-0.100000)"
fill="#000000" stroke="none">
<path d="M0 2420 l0 -2420 2420 0 2420 0 0 2420 0 2420 -2420 0 -2420 0 0
-2420z m2830 1599 c0 -5 4 -8 9 -5 4 3 18 -3 30 -13 17 -15 23 -32 25 -70 1
-28 0 -51 -4 -51 -5 0 -9 -26 -13 -77 -1 -11 -6 -19 -11 -15 -5 3 -7 -5 -4
-16 4 -12 3 -22 0 -22 -7 0 -11 -24 -15 -77 -1 -11 -6 -19 -11 -16 -4 3 -5 -4
-1 -16 3 -11 3 -21 -2 -21 -7 0 -12 -21 -16 -77 -1 -11 -6 -19 -11 -15 -5 3
-7 -2 -3 -11 3 -9 0 -35 -8 -58 -8 -23 -12 -45 -9 -50 3 -5 0 -9 -6 -9 -7 0
-9 -8 -5 -21 5 -16 4 -19 -5 -14 -8 5 -11 4 -7 -2 3 -5 0 -29 -7 -54 -7 -24
-11 -50 -8 -58 3 -9 0 -11 -8 -6 -8 5 -11 4 -7 -2 4 -6 0 -30 -8 -53 -8 -24
-13 -45 -11 -47 3 -3 -2 -23 -10 -45 -7 -22 -11 -44 -8 -49 3 -5 0 -9 -6 -9
-6 0 -9 -4 -5 -9 3 -5 -2 -28 -11 -51 -9 -22 -14 -43 -11 -46 2 -3 -4 -28 -14
-55 -11 -28 -17 -54 -14 -60 4 -5 1 -9 -5 -9 -6 0 -8 -4 -5 -10 3 -5 -1 -23
-10 -39 -8 -17 -17 -45 -19 -63 -3 -18 -9 -45 -15 -59 -5 -15 -7 -30 -4 -33 4
-3 1 -6 -6 -6 -7 0 -9 -4 -6 -10 3 -5 1 -18 -4 -28 -6 -11 -13 -34 -16 -52 -3
-18 -12 -45 -20 -61 -8 -15 -12 -36 -8 -45 4 -10 2 -15 -3 -11 -5 3 -11 -3
-12 -14 -1 -10 -3 -28 -4 -39 -1 -11 -7 -20 -12 -20 -5 0 -7 -3 -3 -6 3 -4 0
-22 -8 -41 -8 -19 -12 -40 -8 -46 4 -6 1 -7 -7 -2 -9 6 -10 2 -5 -15 5 -17 4
-21 -5 -15 -8 5 -11 4 -7 -2 4 -6 0 -27 -8 -46 -8 -19 -12 -37 -9 -39 2 -3 -3
-22 -11 -42 -9 -20 -13 -42 -9 -48 5 -7 2 -8 -6 -3 -8 5 -11 3 -8 -6 3 -8 -1
-29 -8 -48 -8 -18 -11 -37 -8 -42 3 -5 0 -9 -6 -9 -6 0 -8 -4 -5 -10 3 -5 -1
-23 -10 -39 -8 -16 -12 -38 -8 -47 5 -13 3 -15 -7 -9 -8 5 -11 4 -6 -3 4 -6 0
-27 -8 -47 -8 -19 -13 -35 -10 -35 2 0 -3 -16 -11 -36 -8 -20 -12 -41 -8 -47
3 -6 1 -7 -5 -3 -6 4 -10 -1 -10 -11 0 -10 -5 -31 -12 -48 -8 -16 -15 -37 -16
-45 -1 -8 -9 -32 -18 -52 -9 -21 -14 -38 -12 -38 3 0 -1 -12 -9 -27 -8 -15
-11 -31 -8 -36 3 -6 1 -7 -4 -4 -6 4 -14 0 -17 -9 -4 -10 -2 -13 6 -8 7 4 2
-9 -10 -30 -12 -20 -16 -34 -10 -31 7 4 4 -1 -6 -9 -11 -9 -17 -16 -13 -16 3
0 -6 -26 -20 -57 -43 -99 -47 -108 -48 -120 0 -6 -9 -21 -19 -32 -11 -12 -16
-24 -12 -28 3 -4 -6 -20 -21 -36 -16 -17 -21 -26 -13 -21 11 6 11 2 -3 -16
-10 -14 -20 -32 -23 -40 -6 -19 -65 -60 -86 -60 -21 0 -73 50 -82 78 -5 13 -1
43 9 72 9 27 14 54 10 60 -3 5 -2 10 2 10 8 0 10 8 16 64 1 13 6 22 11 18 5
-3 7 2 3 11 -3 10 -3 17 1 17 4 0 9 9 10 20 1 11 3 29 4 40 1 11 6 20 11 20 4
0 5 5 2 10 -3 6 -2 10 2 10 5 0 10 8 11 18 5 49 10 66 20 70 7 2 10 8 7 13 -3
5 -1 18 5 30 7 11 14 33 16 47 3 15 10 32 15 39 6 7 8 16 5 22 -3 5 1 12 10
15 8 3 12 11 9 16 -4 6 1 22 10 36 9 14 14 28 11 32 -3 3 1 16 10 30 9 13 18
36 20 50 3 15 10 32 15 38 6 7 12 24 15 39 3 15 12 38 21 51 8 13 12 24 9 24
-4 0 0 13 8 29 9 16 12 31 9 35 -4 3 -1 6 6 6 7 0 10 4 7 8 -3 5 4 23 15 41
11 18 14 29 7 25 -6 -4 1 14 16 40 16 27 23 45 17 42 -6 -4 -2 9 9 29 11 19
20 44 20 53 0 10 4 22 9 28 6 5 12 21 15 36 2 14 9 35 15 46 6 12 11 30 11 42
0 13 4 19 12 14 7 -4 8 -3 4 4 -4 6 0 26 9 43 9 17 11 28 5 24 -6 -4 -2 12 10
34 11 23 18 46 15 51 -3 6 -1 10 6 10 7 0 10 3 6 6 -3 3 3 26 14 50 10 25 14
42 9 39 -5 -3 -1 13 10 37 10 23 16 46 14 50 -3 4 0 8 6 8 6 0 9 4 6 9 -4 5 3
30 14 56 11 25 15 43 10 40 -5 -3 -1 15 10 40 11 26 18 51 14 56 -3 5 0 9 6 9
6 0 8 4 5 10 -3 5 1 23 10 40 9 17 13 35 10 40 -3 6 -1 10 5 10 6 0 9 4 6 9
-3 5 0 26 8 47 7 22 11 45 8 53 -3 9 0 11 8 6 9 -5 11 -4 6 3 -4 6 -2 20 3 30
6 11 12 34 15 53 2 19 11 53 19 76 9 22 14 43 11 46 -2 2 3 23 11 47 8 23 12
47 8 53 -4 6 -1 7 7 2 10 -6 12 -4 7 9 -4 9 0 34 8 54 9 20 13 42 11 49 -3 7
-1 13 4 13 5 0 6 7 3 17 -4 9 -2 14 3 11 5 -4 10 5 12 18 1 13 3 35 5 49 1 14
6 25 10 25 5 0 6 4 3 9 -3 5 1 28 9 51 8 23 12 46 9 51 -3 5 0 9 6 9 6 0 8 5
5 11 -4 6 0 30 10 55 9 24 14 48 10 54 -3 5 -1 10 5 10 6 0 9 4 5 9 -10 17 27
81 47 81 11 0 16 5 13 10 -4 6 5 10 19 10 14 0 26 -5 26 -11z m345 -457 c11
-6 16 -12 12 -12 -13 0 49 -50 62 -50 6 0 11 -7 11 -15 0 -9 11 -20 25 -25 14
-5 25 -12 25 -15 0 -4 -5 -3 -12 1 -7 4 -8 3 -4 -5 4 -6 20 -18 37 -26 16 -9
28 -21 26 -27 -1 -7 8 -17 20 -22 12 -6 24 -18 26 -28 3 -10 16 -22 30 -27 13
-5 27 -19 30 -30 3 -11 17 -25 31 -31 14 -5 26 -15 26 -21 0 -7 17 -29 38 -50
20 -20 44 -45 52 -53 8 -9 29 -28 45 -42 17 -14 24 -23 18 -19 -28 14 -11 -6
29 -35 22 -16 37 -30 32 -30 -5 0 2 -7 14 -16 12 -8 22 -21 22 -28 0 -14 67
-76 82 -76 5 0 6 -4 3 -10 -3 -5 -1 -10 4 -10 6 0 22 -17 35 -39 25 -40 138
-164 213 -234 24 -22 40 -43 38 -48 -3 -4 0 -11 6 -14 29 -19 99 -129 99 -157
0 -30 -34 -98 -49 -98 -4 0 -21 -13 -37 -30 -16 -16 -35 -30 -42 -30 -7 0 -10
-5 -6 -12 4 -7 3 -8 -5 -4 -7 5 -22 -3 -35 -17 -13 -14 -26 -24 -28 -22 -2 2
-17 -7 -32 -20 -16 -14 -33 -25 -38 -25 -5 0 -7 -4 -3 -9 3 -5 -5 -13 -17 -16
-13 -4 -38 -21 -56 -39 -18 -17 -36 -31 -40 -31 -4 0 -6 -4 -4 -8 1 -5 -1 -6
-6 -3 -5 3 -19 -5 -33 -17 -55 -49 -72 -62 -64 -47 5 8 -6 3 -24 -12 -18 -16
-37 -28 -42 -28 -6 0 -7 -5 -3 -12 4 -7 3 -8 -4 -4 -7 4 -28 -8 -50 -28 -20
-20 -41 -36 -46 -36 -5 0 -15 -8 -23 -17 -9 -11 -12 -12 -7 -3 4 8 -8 2 -26
-15 -18 -16 -30 -23 -26 -15 5 9 2 8 -7 -2 -8 -10 -18 -18 -22 -18 -4 0 -25
-14 -46 -31 -21 -17 -39 -27 -39 -22 0 4 -10 -3 -21 -17 -11 -14 -17 -19 -13
-11 4 8 -9 2 -29 -13 -20 -16 -37 -25 -37 -20 0 4 -7 -1 -16 -12 -8 -10 -12
-13 -9 -6 6 11 3 11 -13 1 -12 -7 -18 -17 -16 -21 3 -5 2 -7 -3 -6 -4 1 -18
-3 -30 -10 -13 -7 -23 -9 -23 -5 0 4 -7 -2 -16 -13 -8 -10 -13 -13 -9 -7 4 9
1 11 -9 7 -9 -3 -16 -10 -16 -15 0 -5 -9 -9 -20 -9 -11 0 -20 5 -20 11 0 6 -7
8 -16 5 -8 -3 -12 -2 -9 4 3 6 -1 10 -9 10 -22 0 -44 52 -41 96 3 50 21 94 38
94 7 0 19 9 27 20 8 11 19 20 25 20 6 0 26 16 45 35 19 19 39 35 45 35 5 0 21
10 35 23 14 12 44 35 67 51 24 16 55 40 70 55 14 14 23 19 18 11 -8 -14 4 -5
64 48 14 12 29 22 34 22 5 0 23 11 39 25 16 14 35 22 40 19 7 -4 8 -2 4 4 -4
7 -1 12 9 12 9 0 13 5 10 10 -4 6 -3 10 2 9 19 -3 33 2 49 18 10 10 21 19 26
19 4 1 13 2 19 3 5 0 7 6 4 11 -3 6 -1 10 6 10 7 0 32 17 58 37 25 21 41 32
37 24 -11 -17 44 18 61 39 7 8 13 11 13 6 0 -6 7 -1 16 10 8 10 12 12 8 4 -7
-14 52 33 68 55 5 6 8 4 8 -4 0 -8 3 -11 7 -7 4 3 -10 20 -30 37 -20 17 -37
36 -37 43 0 7 -9 21 -20 31 -11 10 -20 23 -20 28 0 13 -97 125 -192 222 -104
105 -126 130 -108 120 10 -6 8 -1 -4 13 -10 12 -27 24 -37 27 -10 3 -32 28
-48 55 -17 28 -37 50 -44 50 -8 0 -22 10 -33 22 -12 13 -13 18 -4 13 13 -8 13
-7 1 9 -8 9 -27 24 -43 32 -15 8 -27 18 -25 23 1 4 -15 25 -35 45 -21 21 -38
42 -38 48 0 5 -4 7 -8 4 -5 -3 -31 20 -58 49 -27 30 -55 55 -61 55 -7 0 -13 7
-13 15 0 8 -12 21 -27 29 -16 8 -24 15 -20 16 5 0 -3 14 -17 31 -34 40 -34 85
-1 122 14 15 23 27 18 27 -4 0 1 6 11 13 22 16 73 16 101 -1z m-1673 -95 c32
-28 48 -98 28 -122 -7 -8 -9 -15 -4 -15 5 0 1 -5 -8 -11 -10 -5 -18 -17 -18
-24 0 -8 -4 -15 -10 -15 -5 0 -10 -9 -10 -21 0 -11 -4 -18 -9 -15 -5 3 -12 -5
-15 -19 -4 -14 -11 -25 -16 -25 -6 0 -10 -6 -10 -14 0 -8 -7 -16 -15 -20 -8
-3 -15 -14 -15 -25 0 -11 -5 -23 -12 -27 -7 -5 -8 -3 -3 6 5 9 4 11 -3 6 -7
-4 -12 -13 -12 -20 0 -13 -25 -49 -52 -74 -10 -9 -18 -24 -18 -34 0 -9 -9 -22
-19 -27 -10 -6 -24 -24 -29 -41 -6 -16 -14 -30 -17 -30 -3 0 -3 6 1 13 6 8 3
8 -9 -1 -9 -8 -19 -23 -23 -35 -4 -12 -17 -29 -29 -39 -13 -10 -26 -29 -29
-42 -3 -14 -20 -34 -36 -46 -17 -12 -30 -27 -30 -34 0 -7 -11 -25 -25 -40 -13
-14 -22 -26 -19 -26 2 0 -14 -16 -36 -36 -22 -20 -40 -41 -40 -46 0 -16 -50
-80 -99 -127 -25 -24 -39 -41 -31 -36 8 4 -2 -7 -22 -26 -21 -19 -38 -39 -38
-44 0 -6 5 -3 10 5 8 13 10 13 10 -2 0 -9 5 -20 12 -24 7 -5 8 -3 3 6 -5 8 7
2 26 -12 19 -15 41 -28 49 -30 8 -2 42 -20 74 -42 32 -21 56 -32 52 -25 -4 8
2 3 14 -11 12 -14 18 -19 14 -11 -4 8 9 2 29 -13 20 -15 43 -29 52 -30 9 -1
41 -19 71 -40 31 -20 53 -31 49 -24 -4 7 3 2 15 -12 12 -14 19 -19 15 -12 -3
7 13 -1 37 -17 24 -16 50 -31 58 -33 8 -2 37 -19 65 -38 27 -19 46 -28 41 -20
-4 8 0 6 8 -4 9 -11 16 -16 16 -12 0 4 23 -9 52 -31 29 -21 48 -31 43 -23 -5
8 15 -3 45 -25 30 -22 50 -34 46 -27 -7 11 -4 11 12 1 12 -7 18 -17 16 -21 -3
-4 1 -8 9 -8 8 0 24 -9 37 -20 12 -11 26 -17 31 -15 4 3 11 0 15 -6 5 -8 3 -9
-7 -4 -8 4 -4 -2 9 -14 12 -12 20 -26 17 -32 -4 -5 -3 -9 2 -9 4 0 8 -18 8
-39 1 -23 -3 -37 -9 -34 -5 4 -6 1 -1 -6 4 -7 -3 -23 -16 -38 -13 -15 -18 -23
-11 -19 6 4 12 5 12 2 0 -10 -59 -36 -82 -36 -13 0 -34 7 -46 16 -13 9 -26 13
-29 10 -3 -3 -12 2 -20 12 -8 9 -12 12 -8 5 3 -7 -13 -1 -37 12 -23 13 -46 21
-51 18 -6 -3 -7 -1 -3 5 4 7 4 12 -1 13 -26 2 -43 9 -77 33 -22 14 -41 24 -44
21 -3 -2 -11 3 -19 13 -8 9 -11 11 -7 3 4 -8 -14 2 -41 22 -26 20 -52 34 -58
30 -6 -3 -7 -1 -3 5 4 7 2 13 -3 13 -6 1 -14 2 -18 3 -5 1 -30 17 -57 35 -27
19 -45 28 -41 21 4 -7 -13 1 -38 19 -25 17 -49 36 -52 41 -4 6 -11 8 -16 5 -5
-4 -12 1 -15 9 -3 9 -9 14 -13 11 -4 -2 -25 10 -46 28 -22 18 -35 25 -30 17 5
-8 -7 -3 -26 12 -68 55 -92 72 -84 57 5 -7 -8 1 -29 19 -20 18 -42 29 -48 26
-7 -4 -8 -2 -4 4 4 7 1 12 -6 12 -7 0 -37 18 -66 41 -30 22 -50 34 -46 27 9
-14 -67 40 -77 55 -4 5 -13 6 -20 2 -8 -5 -11 -5 -7 -1 3 4 -5 24 -18 43 -13
20 -24 46 -24 58 0 37 30 97 50 102 11 3 22 13 25 23 3 10 26 35 51 55 24 20
42 40 39 45 -3 4 8 16 24 27 16 10 49 41 73 68 23 28 34 44 23 36 -11 -8 0 5
25 29 25 24 38 40 30 35 -8 -4 5 12 30 35 25 24 38 39 30 35 -8 -4 4 9 28 29
23 21 42 44 42 51 0 7 17 31 38 52 20 21 50 59 65 86 15 26 30 47 33 47 3 0 2
-6 -1 -12 -4 -7 1 -4 9 6 9 11 16 25 16 32 0 6 11 19 25 28 14 9 25 25 25 35
0 10 11 26 25 35 14 9 25 25 25 36 0 10 5 22 12 26 7 5 8 3 3 -6 -5 -9 -4 -11
3 -6 7 4 12 13 12 21 0 8 11 26 25 41 13 14 23 30 20 34 -3 4 5 10 16 13 14 4
20 11 16 21 -4 10 1 20 13 26 11 6 20 17 20 24 0 8 7 16 15 20 8 3 15 11 15
17 0 18 32 38 60 39 14 0 37 -11 52 -23z"/>
</g>
</svg>
