<?xml version="1.0" standalone="no"?>
<!DOCTYPE svg PUBLIC "-//W3C//DTD SVG 20010904//EN"
 "http://www.w3.org/TR/2001/REC-SVG-20010904/DTD/svg10.dtd">
<svg version="1.0" xmlns="http://www.w3.org/2000/svg"
 width="300.000000pt" height="300.000000pt" viewBox="0 0 300.000000 300.000000"
 preserveAspectRatio="xMidYMid meet">
<metadata>
Created by potrace 1.14, written by Peter Selinger 2001-2017
</metadata>
<g transform="translate(0.000000,300.000000) scale(0.100000,-0.100000)"
fill="#000000" stroke="none">
<path d="M1310 2414 c-47 -14 -206 -66 -354 -115 -148 -49 -271 -88 -273 -85
-2 2 22 14 54 26 32 12 94 36 138 55 44 18 109 45 145 59 87 34 50 33 -118 -4
-109 -25 -147 -38 -187 -65 -59 -40 -145 -120 -145 -135 0 -6 -15 -43 -34 -83
-19 -40 -46 -110 -60 -157 -15 -46 -32 -90 -37 -97 -8 -9 1 -24 33 -55 63 -63
98 -108 98 -126 0 -8 23 -47 52 -86 102 -139 137 -193 131 -199 -8 -9 50 -97
139 -208 95 -120 113 -132 64 -45 -60 106 -29 101 51 -9 35 -48 42 -65 37 -88
-6 -30 26 -70 294 -367 166 -184 144 -170 192 -124 40 38 126 133 332 368 79
90 95 114 87 128 -13 23 29 86 118 177 66 67 60 54 -22 -53 -26 -33 -53 -73
-62 -90 l-16 -31 28 25 c26 24 243 263 440 484 49 56 120 134 157 175 37 41
68 81 68 89 0 15 -47 102 -55 102 -8 0 8 -35 28 -60 l19 -25 -32 -13 c-40 -16
-62 -4 -26 15 29 15 29 17 -21 95 -24 40 -30 64 -12 52 8 -4 8 0 0 15 -13 24
-23 28 -15 6 11 -28 -5 -15 -22 18 -17 31 -17 32 2 17 18 -14 18 -14 2 10 -9
14 -22 24 -28 22 -6 -1 -9 2 -5 8 8 13 -48 111 -86 149 -69 69 -164 130 -219
142 -30 6 -100 22 -155 35 -55 13 -111 24 -125 23 -29 0 -46 8 155 -79 294
-127 305 -133 305 -149 0 -17 32 -82 127 -258 50 -93 58 -113 44 -117 -9 -2
-63 -7 -121 -9 -62 -4 -93 -2 -75 3 17 4 65 8 108 9 42 0 77 5 77 10 0 5 -4
11 -9 13 -9 3 -106 192 -147 286 l-17 37 -12 -75 c-26 -154 -46 -197 -68 -141
-6 17 -15 31 -20 31 -12 0 -53 52 -49 63 1 5 -2 6 -7 3 -5 -3 -22 15 -37 41
-28 49 -43 71 -108 159 l-38 51 -31 -28 c-31 -29 -67 -39 -67 -19 0 6 -6 10
-14 10 -8 0 -16 3 -18 8 -5 11 -75 62 -86 62 -5 0 -31 12 -56 28 -85 49 -91
52 -109 52 -11 0 -15 5 -11 11 4 8 0 9 -15 4 -11 -3 -21 -3 -21 2 0 17 -58 35
-125 39 -55 3 -88 -1 -155 -22z m205 -54 c4 -6 41 -34 83 -62 42 -28 123 -84
179 -125 56 -40 106 -73 110 -73 19 0 387 -290 379 -298 -7 -6 -80 36 -151 87
-74 55 -81 58 -82 39 -1 -7 -17 -49 -36 -93 l-35 -79 5 124 5 125 -45 43 c-25
23 -48 42 -51 42 -8 0 4 -54 41 -184 42 -146 40 -166 -20 -166 -51 0 -89 9
-82 20 3 4 -11 38 -30 75 -19 36 -35 76 -35 88 0 11 14 35 31 53 17 18 30 37
27 44 -2 6 -66 -52 -143 -129 -77 -78 -148 -141 -157 -141 -26 0 -48 11 -42
21 3 6 0 17 -8 26 -11 14 -11 16 2 8 33 -20 50 -14 79 28 16 23 39 50 50 59
l21 18 -25 65 c-60 158 -75 193 -100 248 -17 36 -25 69 -23 87 l4 29 -55 -31
c-62 -34 -51 -17 19 31 47 31 74 38 85 21z m-431 -122 c33 -118 32 -127 -11
-86 -19 18 -23 32 -23 80 0 32 4 58 10 58 5 0 16 -24 24 -52z m-455 -138 c-30
-54 -35 -44 -7 14 12 26 24 43 26 37 2 -6 -7 -29 -19 -51z m412 -110 c-6 -28
-11 -79 -11 -113 0 -74 -8 -109 -24 -104 -6 2 -24 40 -41 85 -16 45 -34 82
-39 82 -4 0 -34 -23 -66 -50 -59 -51 -105 -80 -128 -80 -18 0 31 41 183 155
71 53 131 92 133 86 2 -6 -1 -34 -7 -61z m1172 -217 c-7 -2 -19 -2 -25 0 -7 3
-2 5 12 5 14 0 19 -2 13 -5z m-50 -10 c-7 -2 -21 -2 -30 0 -10 3 -4 5 12 5 17
0 24 -2 18 -5z m-781 -8 c15 -6 18 -101 4 -123 -4 -7 -25 -21 -46 -32 -28 -14
-40 -28 -44 -50 -3 -16 -9 -43 -12 -60 -3 -16 -9 -30 -14 -30 -5 0 -10 -6 -12
-14 -2 -12 -6 -12 -18 -3 -25 20 -96 110 -114 145 -23 45 -11 79 26 73 26 -3
118 52 118 71 0 4 -48 8 -107 9 -70 0 -101 3 -88 9 22 9 285 13 307 5z m716
-2 c-10 -2 -28 -2 -40 0 -13 2 -5 4 17 4 22 1 32 -1 23 -4z m-1126 -34 c-12
-12 -21 -14 -30 -6 -16 12 1 26 29 24 17 -1 17 -2 1 -18z m85 -36 c11 -27 23
-60 27 -75 3 -14 8 -34 11 -45 4 -10 -12 16 -34 57 -22 41 -40 83 -41 93 0 32
17 17 37 -30z m429 -19 c-6 -31 -9 -33 -22 -20 -13 14 -13 19 2 48 20 38 29
24 20 -28z m471 44 c-25 -67 -71 -168 -73 -165 -7 7 59 177 69 177 5 0 7 -6 4
-12z m-1296 -12 c5 3 8 0 7 -8 -2 -7 3 -12 10 -10 6 1 12 -2 12 -7 0 -5 10
-30 22 -57 12 -27 23 -58 25 -69 2 -10 8 -22 13 -25 5 -3 13 -21 16 -39 7 -32
6 -33 -15 -22 -12 7 -18 17 -15 23 4 7 3 8 -4 4 -7 -4 -20 6 -32 26 -11 18
-20 29 -20 24 0 -5 -11 3 -25 18 -23 25 -29 39 -26 58 0 4 -6 5 -15 1 -12 -4
-15 0 -12 18 2 13 9 23 15 22 8 -2 10 4 6 15 -6 15 -5 16 12 2 17 -14 18 -13
12 15 -3 17 -4 24 -1 17 3 -6 10 -10 15 -6z m293 -12 c18 -17 21 -34 7 -34 -5
0 -12 8 -14 18 -4 13 -5 11 -6 -5 0 -13 3 -23 8 -23 5 0 7 -9 4 -20 -9 -33
-23 -11 -23 36 0 49 2 51 24 28z m585 -34 c12 -25 15 -36 6 -26 -15 20 -15 20
-16 0 -1 -21 -16 28 -18 60 -1 24 0 22 28 -34z m545 -240 c-42 -83 -74 -153
-71 -156 6 -6 4 -9 -38 -59 l-25 -30 15 43 c25 75 176 352 191 352 2 0 -30
-68 -72 -150z m-880 -142 c24 -68 60 -163 80 -213 19 -49 35 -102 36 -118 0
-25 -9 -19 -126 85 -102 91 -124 116 -119 132 3 12 15 73 26 136 27 158 28
160 45 127 8 -14 34 -81 58 -149z m657 42 c2 30 18 -57 24 -130 l5 -75 -111
-105 -112 -105 6 53 c6 52 76 271 103 324 8 16 23 28 34 28 10 0 22 5 26 11 4
8 9 7 15 -2 7 -12 9 -11 10 1z m-236 -521 c-37 -102 -46 -110 -16 -14 27 84
41 119 46 113 3 -2 -11 -47 -30 -99z"/>
<path d="M356 1833 c-11 -11 -6 -23 9 -23 8 0 15 4 15 9 0 13 -16 22 -24 14z"/>
<path d="M347 1749 c29 -50 43 -56 43 -21 0 21 -7 35 -19 42 -35 18 -43 11
-24 -21z"/>
</g>
</svg>
